<svg width="162" height="154" viewBox="0 0 162 154" fill="none" xmlns="http://www.w3.org/2000/svg">
<g clip-path="url(#clip0_21_309)">
<path d="M5.02954 67.1941C5.47554 67.1481 5.91254 67.0919 6.35854 67.0442C5.74529 72.5327 5.41439 78.0588 5.14644 83.5643C4.7526 91.798 3.40202 100.655 4.11418 108.872C4.7526 116.243 11.2429 116.819 17.6487 116.886C21.9917 116.932 26.3474 117.005 30.6922 116.969C32.4546 116.952 34.1774 116.939 35.7546 116.536C49.3916 125.619 65.4078 130.768 78.865 140.152C82.0283 142.355 86.5836 139.373 86.5135 135.989C85.8139 102.049 84.2277 68.0819 85.0028 34.1282C85.0622 31.2604 81.4924 29.2889 78.9064 30.8157C65.1381 38.9216 51.2116 46.7173 38.2633 55.9376C37.0638 54.5182 35.2241 53.6014 32.3377 53.5571C23.3603 53.4106 14.0106 54.922 5.02775 55.4349C-3.01274 55.8933 -2.79334 68.0325 5.02954 67.1941ZM76.5002 40.8573C75.0273 69.5167 76.5901 98.1419 76.448 126.81C64.9708 119.83 41.3331 106.125 41.1389 106.002C41.2108 101.483 41.2432 96.9628 41.2252 92.4438C41.1965 83.9869 40.9896 75.5249 40.639 67.0731C40.5526 64.9176 40.5239 62.6155 40.1624 60.5315C51.8949 53.402 64.2767 47.22 76.5002 40.8573ZM29.561 64.524C30.0052 68.4926 29.6348 104.315 30.0952 106.628C27.7231 106.192 13.9998 106.781 13.8487 106.771C13.7768 105.639 13.0754 93.6451 12.8075 88.7785C12.4064 81.3526 12.0899 73.8908 11.2879 66.4887C14.0915 66.1734 28.3112 64.6347 29.561 64.524Z" fill="white"/>
<path d="M96.6292 111.481C87.8226 114.616 92.8634 126.415 101.684 122.85C121.011 115.042 134.83 96.7839 129.985 76.5116C127.858 67.6236 122.15 59.8483 114.217 54.7329C110.834 52.5501 100.113 45.879 95.9152 48.9257C95.1815 49.4574 94.8308 50.1134 95.0268 50.9927C95.8235 54.663 103.733 56.8799 106.632 58.8668C112.919 63.1745 117.821 69.0498 119.575 76.3037C123.418 92.1848 111.847 106.055 96.6292 111.481Z" fill="white"/>
<path d="M126.675 26.7177C121.551 23.9607 116.091 21.7591 110.541 19.9052C106.317 18.4909 101.517 16.55 96.9745 17.0936C95.4261 17.2793 94.2842 19.0123 95.6095 20.2221C100.852 25.012 110.059 26.5115 116.467 29.7662C125.558 34.3823 133.979 40.6206 139.79 48.7844C155.925 71.4542 152.965 102.716 133.456 122.521C124.842 131.264 113.843 138.569 101.866 142.512C93.8975 145.138 97.4583 157.296 105.355 154.51C131.437 145.308 155.79 123.329 160.185 96.4551C164.64 69.2015 152.296 40.5132 126.675 26.7177Z" fill="white"/>
</g>
<defs>
<clipPath id="clip0_21_309">
<rect width="162" height="154" fill="white"/>
</clipPath>
</defs>
</svg>
