<svg width="74" height="74" viewBox="0 0 74 74" fill="none" xmlns="http://www.w3.org/2000/svg">
<g clip-path="url(#clip0_21_5)">
<path d="M37 22.5469C34.1414 22.5469 31.3471 23.3945 28.9703 24.9827C26.5935 26.5708 24.741 28.8281 23.6471 31.469C22.5531 34.11 22.2669 37.016 22.8246 39.8197C23.3823 42.6233 24.7588 45.1986 26.7801 47.2199C28.8014 49.2412 31.3767 50.6177 34.1803 51.1754C36.984 51.7331 39.89 51.4469 42.531 50.3529C45.1719 49.259 47.4292 47.4065 49.0173 45.0297C50.6055 42.6529 51.4531 39.8586 51.4531 37C51.4531 33.1668 49.9304 29.4906 47.2199 26.7801C44.5094 24.0696 40.8332 22.5469 37 22.5469ZM37 47.9844C34.8275 47.9844 32.7038 47.3402 30.8974 46.1332C29.091 44.9262 27.6831 43.2107 26.8518 41.2035C26.0204 39.1964 25.8029 36.9878 26.2267 34.8571C26.6505 32.7263 27.6967 30.7691 29.2329 29.2329C30.7691 27.6967 32.7263 26.6505 34.8571 26.2267C36.9878 25.8029 39.1964 26.0204 41.2035 26.8518C43.2107 27.6831 44.9262 29.091 46.1332 30.8974C47.3402 32.7038 47.9844 34.8275 47.9844 37C47.9844 39.9132 46.8271 42.7072 44.7671 44.7671C42.7072 46.8271 39.9132 47.9844 37 47.9844Z" fill="white"/>
<path d="M69.9531 27.75H64.7905C64.6703 27.7491 64.5533 27.7108 64.4559 27.6403C64.3585 27.5698 64.2855 27.4708 64.247 27.3569C63.911 26.4026 63.5251 25.4667 63.0908 24.553C63.0366 24.4452 63.0175 24.3231 63.0361 24.2038C63.0548 24.0846 63.1103 23.9742 63.1948 23.8881L66.8428 20.2344C67.2186 19.8586 67.5168 19.4124 67.7202 18.9214C67.9236 18.4304 68.0283 17.9041 68.0283 17.3727C68.0283 16.8412 67.9236 16.3149 67.7202 15.8239C67.5168 15.3329 67.2186 14.8867 66.8428 14.5109L59.4833 7.15719C59.1075 6.78136 58.6613 6.48323 58.1703 6.27983C57.6793 6.07643 57.153 5.97174 56.6216 5.97174C56.0901 5.97174 55.5638 6.07643 55.0728 6.27983C54.5818 6.48323 54.1356 6.78136 53.7598 7.15719L50.1119 10.8052C50.0258 10.8897 49.9154 10.9452 49.7962 10.9639C49.6769 10.9826 49.5548 10.9634 49.447 10.9092C48.5334 10.4748 47.5974 10.0888 46.6431 9.75297C46.5292 9.7145 46.4302 9.64149 46.3597 9.54409C46.2892 9.44669 46.2509 9.32974 46.25 9.20953V4.04688C46.25 2.97358 45.8236 1.94424 45.0647 1.1853C44.3058 0.426366 43.2764 0 42.2031 0H31.7969C30.7236 0 29.6942 0.426366 28.9353 1.1853C28.1764 1.94424 27.75 2.97358 27.75 4.04688V9.20953C27.7491 9.32974 27.7108 9.44669 27.6403 9.54409C27.5698 9.64149 27.4708 9.7145 27.3569 9.75297C26.4026 10.089 25.4667 10.4749 24.553 10.9092C24.4452 10.9634 24.3231 10.9826 24.2038 10.9639C24.0846 10.9452 23.9742 10.8897 23.8881 10.8052L20.2344 7.15719C19.8586 6.78136 19.4124 6.48323 18.9214 6.27983C18.4304 6.07643 17.9041 5.97174 17.3727 5.97174C16.8412 5.97174 16.3149 6.07643 15.8239 6.27983C15.3329 6.48323 14.8867 6.78136 14.5109 7.15719L7.15719 14.5167C6.78136 14.8925 6.48323 15.3387 6.27983 15.8297C6.07643 16.3207 5.97174 16.847 5.97174 17.3784C5.97174 17.9099 6.07643 18.4362 6.27983 18.9272C6.48323 19.4182 6.78136 19.8644 7.15719 20.2402L10.8052 23.8881C10.8897 23.9742 10.9452 24.0846 10.9639 24.2038C10.9826 24.3231 10.9634 24.4452 10.9092 24.553C10.4748 25.4666 10.0888 26.4026 9.75297 27.3569C9.7145 27.4708 9.64149 27.5698 9.54409 27.6403C9.44669 27.7108 9.32974 27.7491 9.20953 27.75H4.04688C2.97358 27.75 1.94424 28.1764 1.1853 28.9353C0.426366 29.6942 0 30.7236 0 31.7969L0 42.2031C0 43.2764 0.426366 44.3058 1.1853 45.0647C1.94424 45.8236 2.97358 46.25 4.04688 46.25H9.20953C9.32974 46.2509 9.44669 46.2892 9.54409 46.3597C9.64149 46.4302 9.7145 46.5292 9.75297 46.6431C10.089 47.5974 10.4749 48.5333 10.9092 49.447C10.9634 49.5548 10.9826 49.6769 10.9639 49.7962C10.9452 49.9154 10.8897 50.0258 10.8052 50.1119L7.15719 53.7656C6.78136 54.1414 6.48323 54.5876 6.27983 55.0786C6.07643 55.5696 5.97174 56.0959 5.97174 56.6273C5.97174 57.1588 6.07643 57.6851 6.27983 58.1761C6.48323 58.6671 6.78136 59.1133 7.15719 59.4891L14.5167 66.8486C14.8925 67.2244 15.3387 67.5226 15.8297 67.726C16.3207 67.9294 16.847 68.034 17.3784 68.034C17.9099 68.034 18.4362 67.9294 18.9272 67.726C19.4182 67.5226 19.8644 67.2244 20.2402 66.8486L23.8881 63.2006C23.9742 63.1161 24.0846 63.0606 24.2038 63.0419C24.3231 63.0232 24.4452 63.0423 24.553 63.0966C25.4666 63.531 26.4026 63.917 27.3569 64.2528C27.4708 64.2913 27.5698 64.3643 27.6403 64.4617C27.7108 64.5591 27.7491 64.676 27.75 64.7962V69.9531C27.75 71.0264 28.1764 72.0558 28.9353 72.8147C29.6942 73.5736 30.7236 74 31.7969 74H42.2031C43.2764 74 44.3058 73.5736 45.0647 72.8147C45.8236 72.0558 46.25 71.0264 46.25 69.9531V64.7905C46.2509 64.6703 46.2892 64.5533 46.3597 64.4559C46.4302 64.3585 46.5292 64.2855 46.6431 64.247C47.5974 63.911 48.5333 63.5251 49.447 63.0908C49.5548 63.0366 49.6769 63.0175 49.7962 63.0361C49.9154 63.0548 50.0258 63.1103 50.1119 63.1948L53.7656 66.8428C54.1414 67.2186 54.5876 67.5168 55.0786 67.7202C55.5696 67.9236 56.0959 68.0283 56.6273 68.0283C57.1588 68.0283 57.6851 67.9236 58.1761 67.7202C58.6671 67.5168 59.1133 67.2186 59.4891 66.8428L66.8486 59.4833C67.2244 59.1075 67.5226 58.6613 67.726 58.1703C67.9294 57.6793 68.034 57.153 68.034 56.6216C68.034 56.0901 67.9294 55.5638 67.726 55.0728C67.5226 54.5818 67.2244 54.1356 66.8486 53.7598L63.2006 50.1119C63.1161 50.0258 63.0606 49.9154 63.0419 49.7962C63.0232 49.6769 63.0423 49.5548 63.0966 49.447C63.531 48.5334 63.917 47.5974 64.2528 46.6431C64.2913 46.5292 64.3643 46.4302 64.4617 46.3597C64.5591 46.2892 64.676 46.2509 64.7962 46.25H69.9531C71.0264 46.25 72.0558 45.8236 72.8147 45.0647C73.5736 44.3058 74 43.2764 74 42.2031V31.7969C74 30.7236 73.5736 29.6942 72.8147 28.9353C72.0558 28.1764 71.0264 27.75 69.9531 27.75ZM70.5312 42.2031C70.5312 42.3565 70.4703 42.5035 70.3619 42.6119C70.2535 42.7203 70.1065 42.7812 69.9531 42.7812H64.7905C63.9519 42.7822 63.1344 43.0436 62.4509 43.5293C61.7673 44.015 61.2516 44.7011 60.9748 45.4927C60.679 46.3308 60.3394 47.1529 59.9573 47.9555C59.591 48.712 59.4693 49.5638 59.6092 50.3926C59.7491 51.2214 60.1435 51.9861 60.7378 52.5805L64.3858 56.2284C64.4935 56.3368 64.5539 56.4833 64.5539 56.636C64.5539 56.7887 64.4935 56.9353 64.3858 57.0436L57.032 64.3916C56.9237 64.4992 56.7772 64.5597 56.6245 64.5597C56.4717 64.5597 56.3252 64.4992 56.2169 64.3916L52.5689 60.7436C51.9745 60.1493 51.2098 59.7549 50.381 59.615C49.5522 59.4751 48.7004 59.5968 47.9439 59.9631C47.1395 60.3454 46.3155 60.685 45.4753 60.9806C44.6848 61.2583 44 61.7745 43.5154 62.4579C43.0308 63.1414 42.7702 63.9584 42.7697 64.7962V69.9531C42.7697 70.1065 42.7088 70.2535 42.6004 70.3619C42.4919 70.4703 42.3449 70.5312 42.1916 70.5312H31.7969C31.6435 70.5312 31.4965 70.4703 31.3881 70.3619C31.2797 70.2535 31.2188 70.1065 31.2188 69.9531V64.7905C31.2178 63.9519 30.9564 63.1344 30.4707 62.4509C29.985 61.7673 29.2989 61.2516 28.5073 60.9748C27.6692 60.679 26.8471 60.3394 26.0445 59.9573C25.288 59.591 24.4362 59.4693 23.6074 59.6092C22.7786 59.7491 22.0139 60.1435 21.4195 60.7378L17.7716 64.3858C17.6632 64.4935 17.5167 64.5539 17.364 64.5539C17.2113 64.5539 17.0647 64.4935 16.9564 64.3858L9.60844 57.032C9.50076 56.9237 9.44032 56.7772 9.44032 56.6245C9.44032 56.4717 9.50076 56.3252 9.60844 56.2169L13.2564 52.5689C13.8507 51.9745 14.2451 51.2098 14.385 50.381C14.5249 49.5522 14.4032 48.7004 14.0369 47.9439C13.6546 47.1395 13.315 46.3155 13.0194 45.4753C12.7401 44.6879 12.224 44.0063 11.5418 43.5239C10.8597 43.0415 10.045 42.7821 9.20953 42.7812H4.04688C3.89355 42.7812 3.7465 42.7203 3.63808 42.6119C3.52966 42.5035 3.46875 42.3565 3.46875 42.2031V31.7969C3.46875 31.6435 3.52966 31.4965 3.63808 31.3881C3.7465 31.2797 3.89355 31.2188 4.04688 31.2188H9.20953C10.0481 31.2178 10.8656 30.9564 11.5491 30.4707C12.2327 29.985 12.7484 29.2989 13.0252 28.5073C13.321 27.6692 13.6606 26.8471 14.0427 26.0445C14.409 25.288 14.5307 24.4362 14.3908 23.6074C14.2509 22.7786 13.8565 22.0139 13.2622 21.4195L9.61422 17.7716C9.50654 17.6632 9.4461 17.5167 9.4461 17.364C9.4461 17.2113 9.50654 17.0647 9.61422 16.9564L16.968 9.60844C17.0763 9.50076 17.2228 9.44032 17.3755 9.44032C17.5283 9.44032 17.6748 9.50076 17.7831 9.60844L21.4311 13.2564C22.0255 13.8507 22.7902 14.2451 23.619 14.385C24.4478 14.5249 25.2996 14.4032 26.0561 14.0369C26.8605 13.6546 27.6845 13.315 28.5247 13.0194C29.3121 12.7401 29.9937 12.224 30.4761 11.5418C30.9585 10.8597 31.2179 10.045 31.2188 9.20953V4.04688C31.2188 3.89355 31.2797 3.7465 31.3881 3.63808C31.4965 3.52966 31.6435 3.46875 31.7969 3.46875H42.2031C42.3565 3.46875 42.5035 3.52966 42.6119 3.63808C42.7203 3.7465 42.7812 3.89355 42.7812 4.04688V9.20953C42.7822 10.0481 43.0436 10.8656 43.5293 11.5491C44.015 12.2327 44.7011 12.7484 45.4927 13.0252C46.3308 13.321 47.1529 13.6606 47.9555 14.0427C48.712 14.409 49.5638 14.5307 50.3926 14.3908C51.2214 14.2509 51.9861 13.8565 52.5805 13.2622L56.2284 9.61422C56.3368 9.50654 56.4833 9.4461 56.636 9.4461C56.7887 9.4461 56.9353 9.50654 57.0436 9.61422L64.4031 16.9738C64.5108 17.0821 64.5712 17.2286 64.5712 17.3813C64.5712 17.5341 64.5108 17.6806 64.4031 17.7889L60.7552 21.4369C60.1609 22.0313 59.7664 22.796 59.6266 23.6248C59.4867 24.4536 59.6084 25.3054 59.9747 26.0619C60.357 26.8663 60.6966 27.6903 60.9922 28.5305C61.2699 29.3209 61.7861 30.0058 62.4695 30.4904C63.153 30.975 63.97 31.2356 64.8078 31.2361H69.9531C70.1065 31.2361 70.2535 31.297 70.3619 31.4054C70.4703 31.5138 70.5312 31.6609 70.5312 31.8142V42.2031Z" fill="white"/>
</g>
<defs>
<clipPath id="clip0_21_5">
<rect width="74" height="74" fill="white"/>
</clipPath>
</defs>
</svg>
