<svg width="162" height="154" viewBox="0 0 162 154" fill="none" xmlns="http://www.w3.org/2000/svg">
<path d="M20.3997 110.963C24.9232 111.01 37.6144 111.017 39.254 110.596C53.4566 120.084 70.1372 125.468 84.1493 135.27C87.4463 137.573 92.187 134.459 92.1158 130.922C91.3895 95.4597 89.741 59.9703 90.5421 24.4945C90.6062 21.4991 86.8909 19.4378 84.1938 21.0337C69.8559 29.502 55.3489 37.6471 41.8655 47.2797C40.6176 45.7989 38.7039 44.8394 35.6971 44.792C26.3492 44.6397 16.6096 46.2186 7.25807 46.7534C-1.11786 47.2357 -0.889992 59.9178 7.25807 59.0412C7.71737 58.9938 8.18201 58.9346 8.64131 58.8855C8.00043 64.6208 7.65506 70.3949 7.37913 76.1454C6.96968 84.7491 5.5633 94.0043 6.30566 102.588C6.96968 110.294 13.7274 110.894 20.3997 110.963ZM81.6873 31.526C80.1527 61.4697 81.7852 91.3778 81.6374 121.333C69.685 114.04 45.0628 99.7226 44.8617 99.5957C44.9364 94.8708 44.9667 90.1492 44.9524 85.426C44.9222 76.5888 44.7068 67.7498 44.3418 58.9194C44.251 56.6669 44.2208 54.2622 43.8452 52.0825C56.0628 44.6346 68.9587 38.1751 81.6873 31.526ZM32.8096 56.2557C33.2689 60.4018 32.8932 64.9728 33.0285 68.8549C33.2226 74.3769 32.8843 97.8306 33.3614 100.246C30.8941 99.7886 16.6024 100.408 16.4422 100.394C16.371 99.2115 14.6139 66.0423 13.7772 58.3051C16.6915 57.9768 31.5029 56.3708 32.8096 56.2557Z" fill="white"/>
<path d="M159.451 51.7068C160.636 49.8402 158.267 47.5809 156.303 48.7148C146.261 54.4889 137.654 63.5411 129.098 71.3375C120.537 63.5377 111.93 54.4872 101.891 48.7148C99.9255 47.586 97.5578 49.8402 98.7435 51.7068C104.757 61.1685 114.37 69.168 122.759 77C114.563 84.2989 106.423 91.6469 98.5138 99.2386C94.138 103.436 100.924 109.89 105.336 105.724C113.304 98.208 121.196 90.6248 129.098 83.0466C136.999 90.6265 144.89 98.208 152.857 105.724C157.27 109.89 164.054 103.439 159.682 99.2386C151.767 91.6469 143.632 84.2989 135.436 77C143.828 69.168 153.437 61.1685 159.451 51.7068Z" fill="white"/>
</svg>
